<svg xmlns="http://www.w3.org/2000/svg" xmlns:xlink="http://www.w3.org/1999/xlink" width="1120" zoomAndPan="magnify" viewBox="0 0 840 839.999992" height="1120" preserveAspectRatio="xMidYMid meet" version="1.0"><defs><g/><clipPath id="83f98f3fb0"><path d="M 66.621094 58.222656 L 787.117188 58.222656 L 787.117188 778.71875 L 66.621094 778.71875 Z M 66.621094 58.222656 " clip-rule="nonzero"/></clipPath><clipPath id="a6b5330b51"><path d="M 426.871094 58.222656 C 227.910156 58.222656 66.621094 219.511719 66.621094 418.46875 C 66.621094 617.429688 227.910156 778.71875 426.871094 778.71875 C 625.828125 778.71875 787.117188 617.429688 787.117188 418.46875 C 787.117188 219.511719 625.828125 58.222656 426.871094 58.222656 Z M 426.871094 58.222656 " clip-rule="nonzero"/></clipPath><clipPath id="abbd9ace32"><path d="M 140.441406 132.042969 L 713.289062 132.042969 L 713.289062 704.890625 L 140.441406 704.890625 Z M 140.441406 132.042969 " clip-rule="nonzero"/></clipPath><clipPath id="b6a639e30e"><path d="M 426.863281 132.042969 C 268.675781 132.042969 140.441406 260.277344 140.441406 418.464844 C 140.441406 576.652344 268.675781 704.890625 426.863281 704.890625 C 585.050781 704.890625 713.289062 576.652344 713.289062 418.464844 C 713.289062 260.277344 585.050781 132.042969 426.863281 132.042969 Z M 426.863281 132.042969 " clip-rule="nonzero"/></clipPath></defs><g clip-path="url(#83f98f3fb0)"><g clip-path="url(#a6b5330b51)"><path fill="#202020" d="M 66.621094 58.222656 L 787.117188 58.222656 L 787.117188 778.71875 L 66.621094 778.71875 Z M 66.621094 58.222656 " fill-opacity="1" fill-rule="nonzero"/></g></g><g clip-path="url(#abbd9ace32)"><g clip-path="url(#b6a639e30e)"><path stroke-linecap="butt" transform="matrix(0.75, 0, 0, 0.75, 140.441394, 132.041425)" fill="none" stroke-linejoin="miter" d="M 381.895869 0.00205795 C 170.979191 0.00205795 0.0000159188 170.981233 0.0000159188 381.897911 C 0.0000159188 592.814588 170.979191 763.798972 381.895869 763.798972 C 592.812546 763.798972 763.79693 592.814588 763.79693 381.897911 C 763.79693 170.981233 592.812546 0.00205795 381.895869 0.00205795 Z M 381.895869 0.00205795 " stroke="#f8f8f8" stroke-width="18" stroke-opacity="1" stroke-miterlimit="4"/></g></g><g fill="#ffffff" fill-opacity="1"><g transform="translate(221.73279, 453.749997)"><g><path d="M 19.21875 -71.1875 L 37.796875 -13.109375 L 56.375 -71.1875 L 67.921875 -71.1875 L 67.921875 0 L 58.96875 0 L 58.96875 -27.71875 L 59.796875 -55.5 L 41.171875 0 L 34.328125 0 L 15.796875 -55.296875 L 16.625 -27.71875 L 16.625 0 L 7.671875 0 L 7.671875 -71.1875 Z M 19.21875 -71.1875 "/></g></g></g><g fill="#ffffff" fill-opacity="1"><g transform="translate(297.373174, 453.749997)"><g><path d="M 50.125 -71.1875 L 50.125 -20.578125 C 50.050781 -13.835938 48.09375 -8.554688 44.25 -4.734375 C 40.40625 -0.921875 35.046875 0.984375 28.171875 0.984375 C 21.128906 0.984375 15.75 -0.878906 12.03125 -4.609375 C 8.3125 -8.347656 6.421875 -13.671875 6.359375 -20.578125 L 6.359375 -71.1875 L 15.25 -71.1875 L 15.25 -20.921875 C 15.25 -16.128906 16.269531 -12.550781 18.3125 -10.1875 C 20.351562 -7.832031 23.640625 -6.65625 28.171875 -6.65625 C 32.734375 -6.65625 36.03125 -7.832031 38.0625 -10.1875 C 40.101562 -12.550781 41.125 -16.128906 41.125 -20.921875 L 41.125 -71.1875 Z M 50.125 -71.1875 "/></g></g></g><g fill="#ffffff" fill-opacity="1"><g transform="translate(353.602286, 453.749997)"><g><path d="M 54.171875 0 L 45.1875 0 L 16.671875 -54.859375 L 16.671875 0 L 7.671875 0 L 7.671875 -71.1875 L 16.671875 -71.1875 L 45.28125 -16.09375 L 45.28125 -71.1875 L 54.171875 -71.1875 Z M 54.171875 0 "/></g></g></g><g fill="#ffffff" fill-opacity="1"><g transform="translate(415.601005, 453.749997)"><g><path d="M 40.875 -18.578125 L 16.828125 -18.578125 L 11.296875 0 L 2.109375 0 L 25.03125 -71.1875 L 32.71875 -71.1875 L 55.6875 0 L 46.5 0 Z M 19.171875 -26.3125 L 38.578125 -26.3125 L 28.84375 -58.671875 Z M 19.171875 -26.3125 "/></g></g></g><g fill="#ffffff" fill-opacity="1"><g transform="translate(473.296964, 453.749997)"><g><path d="M 26.203125 -35.453125 L 40.78125 -71.1875 L 50.90625 -71.1875 L 30.65625 -26.546875 L 30.65625 0 L 21.703125 0 L 21.703125 -26.546875 L 1.46875 -71.1875 L 11.640625 -71.1875 Z M 26.203125 -35.453125 "/></g></g></g><g fill="#ffffff" fill-opacity="1"><g transform="translate(525.810076, 453.749997)"><g><path d="M 22.5 -26.546875 L 2.296875 -26.546875 L 2.296875 -33.9375 L 22.5 -33.9375 Z M 22.5 -26.546875 "/></g></g></g><g fill="#ffffff" fill-opacity="1"><g transform="translate(550.648675, 453.749997)"><g><path d="M 23.609375 -32.8125 L 16.625 -24.34375 L 16.625 0 L 7.671875 0 L 7.671875 -71.1875 L 16.625 -71.1875 L 16.625 -36.8125 L 22.5 -44.59375 L 41.65625 -71.1875 L 52.421875 -71.1875 L 29.296875 -39.84375 L 54.21875 0 L 43.515625 0 Z M 23.609375 -32.8125 "/></g></g></g><g fill="#ffffff" fill-opacity="1"><g transform="translate(605.215361, 453.749997)"><g><path d="M 17.015625 0 L 8.0625 0 L 8.0625 -71.1875 L 17.015625 -71.1875 Z M 17.015625 0 "/></g></g></g></svg>